<svg width="48" height="48" viewBox="0 0 48 48" fill="none" xmlns="http://www.w3.org/2000/svg">
<g clip-path="url(#clip0_107_27)">
<path d="M36.75 0H11.25C5.0368 0 0 5.0368 0 11.25V36.75C0 42.9632 5.0368 48 11.25 48H36.75C42.9632 48 48 42.9632 48 36.75V11.25C48 5.0368 42.9632 0 36.75 0Z" fill="#101630"/>
<g clip-path="url(#clip1_107_27)">
<path d="M39.7348 33.0574H33.1782C33.068 33.0574 32.9789 33.1254 32.9789 33.259V35.0344C32.9789 35.1445 33.0469 35.2336 33.1805 35.2336H39.736C39.8485 35.2336 39.9375 35.182 39.9375 35.0414V33.266C39.9375 33.143 39.8707 33.0715 39.7348 33.0715V33.0551V33.0574ZM31.1051 12.8238C31.1239 12.8637 31.1403 12.9023 31.1602 12.9645V34.984C31.1602 35.0543 31.1367 35.0965 31.1168 35.1176C31.0976 35.1406 31.0733 35.1589 31.0459 35.1711C31.0185 35.1832 30.9886 35.189 30.9586 35.1879H11.9918C11.9473 35.1879 11.9039 35.1879 11.8782 35.1645C11.857 35.1442 11.8402 35.1198 11.8289 35.0928C11.8176 35.0658 11.812 35.0367 11.8125 35.0074V12.9422C11.8125 12.8531 11.8594 12.7852 11.925 12.7664H30.9586C31.0055 12.7664 31.0711 12.7863 31.0934 12.8063V12.825L31.1051 12.8238ZM13.943 32.8746C13.943 32.959 13.9875 33.0328 14.0555 33.0527H28.8715C28.9395 33.0305 28.984 32.9637 28.984 32.8723V15.0961C28.984 15.0105 28.9383 14.9391 28.8692 14.9203H14.0567C13.991 14.9438 13.9442 15.0059 13.9442 15.0961L13.9407 32.8734L13.943 32.8746ZM20.0063 23.0602C20.768 23.0602 21.1946 23.2676 21.6422 23.7867C21.7102 23.8734 21.8215 23.8957 21.9117 23.8266L23.1235 22.7484C23.2114 22.6969 23.1914 22.5563 23.1469 22.4859C22.4028 21.5906 21.3258 21.0281 19.936 21.0281C18.0727 21.0281 16.6664 21.9598 16.1215 23.6133C15.9282 24.1934 15.8403 24.9328 15.8403 25.9336C15.8403 26.9344 15.9282 27.6715 16.1391 28.2539C16.684 29.9238 18.0903 30.8367 19.9535 30.8367C21.3598 30.8367 22.4321 30.2742 23.1703 29.4117C23.2231 29.325 23.2407 29.2184 23.1528 29.1469L21.9375 28.0746C21.852 28.0195 21.7465 28.0195 21.675 28.1062C21.218 28.6336 20.7434 28.9148 19.9711 28.9148C19.1438 28.9148 18.5121 28.5105 18.2485 27.702C18.0891 27.2449 18.0539 26.6824 18.0539 25.9641C18.0539 25.2434 18.1067 24.7125 18.2649 24.2414C18.5461 23.468 19.1625 23.0602 20.0063 23.0602Z" fill="#FEF0E5"/>
</g>
</g>
<defs>
<clipPath id="clip0_107_27">
<rect width="48" height="48" fill="white"/>
</clipPath>
<clipPath id="clip1_107_27">
<rect width="28.125" height="28.125" fill="white" transform="translate(11.8125 9.9375)"/>
</clipPath>
</defs>
</svg>
