<svg width="48" height="48" viewBox="0 0 48 48" fill="none" xmlns="http://www.w3.org/2000/svg">
<g clip-path="url(#clip0_1_25)">
<path d="M36.75 0H11.25C5.0368 0 0 5.0368 0 11.25V36.75C0 42.9632 5.0368 48 11.25 48H36.75C42.9632 48 48 42.9632 48 36.75V11.25C48 5.0368 42.9632 0 36.75 0Z" fill="#B0361E"/>
<g clip-path="url(#clip1_1_25)">
<path d="M9.9525 24.2494L9.85032 24.2006C9.62468 24.0733 9.4427 23.8808 9.32813 23.6484C9.16394 23.3631 9.07641 23.0401 9.07407 22.7109L9.09844 22.5497C9.09844 22.3003 9.16219 22.0762 9.27469 21.8616L9.37688 21.6759C9.42563 21.5737 9.49875 21.4856 9.5625 21.4022C9.59714 21.3608 9.62108 21.3115 9.63219 21.2587C9.64331 21.2059 9.64127 21.1512 9.62625 21.0994L9.5625 20.8987C9.48647 20.6568 9.44543 20.4052 9.44063 20.1516L9.40125 20.0006C9.40125 19.7222 9.47438 19.4484 9.65063 19.2487L9.77719 19.0875C9.86532 18.9609 10.0022 18.8869 10.1531 18.8381C10.275 18.7987 10.3631 18.6722 10.3781 18.5259L10.4025 18.1012C10.4025 17.7647 10.5638 17.4516 10.8131 17.2219L11.1159 16.9969C11.175 16.9378 11.2378 16.875 11.2866 16.7719C11.3503 16.6987 11.3644 16.5956 11.3503 16.5225C11.3259 16.4006 11.3503 16.3612 11.4141 16.3462C11.6147 16.4241 11.7413 16.3997 11.8294 16.2975L11.9906 16.0875L12.4397 15.585C12.5049 15.5168 12.5489 15.4312 12.5662 15.3384C12.5835 15.2457 12.5734 15.1499 12.5372 15.0628L12.3909 14.7356C12.3666 14.6625 12.3909 14.5744 12.4547 14.55C12.6159 14.55 12.7284 14.6091 12.7772 14.7112L12.8259 14.7994C12.9038 14.9503 13.08 15.0244 13.2019 14.9606C13.4303 14.878 13.6715 14.8367 13.9144 14.8387H14.3147C14.5884 14.8387 14.8125 14.6484 14.8669 14.3606C14.9156 14.0137 15.0375 13.7353 15.2138 13.5497C15.4041 13.335 15.6141 13.1737 15.8634 13.0472C16.1906 12.8766 16.3913 12.6225 16.4541 12.3C16.5422 11.8997 16.7522 11.6119 17.04 11.4262L17.9925 10.8891L18.2663 10.7231C18.4275 10.6256 18.5784 10.4981 18.7059 10.3472L18.9553 10.0491C19.0624 9.92965 19.2012 9.84316 19.3556 9.79968C19.4775 9.76031 19.6538 9.73593 19.8047 9.75093L20.3025 9.78468C20.5519 9.78468 20.7516 9.84843 20.9522 9.93562L21.0788 9.99937C21.2053 10.0481 21.3281 10.0237 21.3909 9.93562L21.5034 9.87187L22.0406 9.31031C22.0957 9.25067 22.1647 9.20565 22.2414 9.1793C22.3182 9.15295 22.4003 9.1461 22.4803 9.15937C22.6416 9.18375 22.8028 9.2475 22.9538 9.32531C23.1788 9.44718 23.3644 9.49593 23.5791 9.49593H23.7056C23.9794 9.49593 24.2522 9.53531 24.5306 9.59812L24.7163 9.64687C24.8074 9.66926 24.9031 9.6645 24.9915 9.63319C25.08 9.60187 25.1573 9.54536 25.2141 9.47062C25.2229 9.45601 25.2348 9.44355 25.2491 9.43416C25.2633 9.42477 25.2795 9.41868 25.2964 9.41634C25.3133 9.41401 25.3305 9.41548 25.3467 9.42065C25.363 9.42583 25.3779 9.43457 25.3903 9.44625C25.4297 9.47062 25.4391 9.495 25.4541 9.53437C25.4784 9.78375 25.6303 9.97406 25.83 10.0322L26.0306 10.0959C26.2406 10.1597 26.4309 10.2966 26.5528 10.4719C26.6794 10.6575 26.8313 10.8478 27.0019 10.9697L27.1284 11.0962C27.1905 11.1564 27.2652 11.2021 27.3471 11.23C27.4289 11.2579 27.516 11.2673 27.6019 11.2575H28.3388C28.6416 11.2575 28.9294 11.3109 29.2181 11.4337C29.4919 11.5603 29.7797 11.5847 30.0384 11.4825C30.3169 11.3991 30.6047 11.3606 30.8925 11.3991L31.4297 11.4825C31.6791 11.5116 31.9275 11.6334 32.0794 11.8247L32.1431 11.8837C32.265 12.0103 32.3925 12.1716 32.5144 12.3478C32.5551 12.4247 32.6163 12.4887 32.6913 12.5328C32.7663 12.5768 32.8521 12.5991 32.9391 12.5972H33.7153C33.9056 12.5972 34.0913 12.6366 34.2431 12.7237C34.4044 12.8456 34.5413 12.9731 34.6678 13.0997L34.7897 13.2609C34.9406 13.4372 35.0147 13.6716 35.0044 13.9247C35.0044 14.1253 35.1553 14.2959 35.3513 14.2959L35.6053 14.325C35.7816 14.325 35.9278 14.4469 36.0159 14.6081L36.1425 14.8622L36.465 15.585C36.512 15.6959 36.5304 15.8167 36.5184 15.9366C36.5184 16.0584 36.5522 16.1616 36.6403 16.2103L36.7669 16.2984C36.8476 16.3588 36.9109 16.4394 36.9504 16.5321C36.9899 16.6248 37.0042 16.7262 36.9919 16.8262L36.9038 17.4122L36.8794 17.6616C36.8691 17.732 36.8777 17.8038 36.9042 17.8699C36.9307 17.9359 36.9742 17.9937 37.0303 18.0375C37.2159 18.1594 37.3041 18.3253 37.3134 18.5109V18.7603C37.3134 18.8869 37.2891 19.0387 37.1916 19.1362C37.1082 19.2437 37.0636 19.3762 37.065 19.5122L37.1044 19.8C37.1044 20.0006 37.2263 20.1759 37.3538 20.2978C37.437 20.361 37.5067 20.4403 37.5587 20.531C37.6107 20.6217 37.644 20.7219 37.6566 20.8256C37.7053 21.1378 37.7156 21.3872 37.7156 21.6366V21.9244C37.7156 22.0266 37.7156 22.125 37.755 22.2225C37.7829 22.3143 37.8394 22.3948 37.9163 22.4522L38.1656 22.6378C38.4197 22.7991 38.595 23.0137 38.6934 23.3016C38.82 23.5753 38.8547 23.8631 38.8547 24.1509V24.2484C38.8547 24.4734 38.8303 24.7125 38.7572 24.9225C38.6939 25.1283 38.7059 25.35 38.7909 25.5478C38.8931 25.7241 38.9569 25.9237 38.9813 26.1384C39.03 26.3878 39.0056 26.6362 38.9175 26.8369L38.8931 26.925C38.8282 27.0782 38.7299 27.215 38.6053 27.3253C38.4788 27.4519 38.3559 27.5259 38.2828 27.6131C38.205 27.6862 38.1563 27.8137 38.1947 27.9253L38.2284 28.1016C38.2922 28.3509 38.2922 28.5994 38.2284 28.8244V28.9266C38.1797 29.1122 38.1066 29.2734 38.0278 29.4244C37.9435 29.5833 37.8145 29.7141 37.6566 29.8003L37.4663 29.9222C37.4202 29.9526 37.3823 29.994 37.356 30.0425C37.3297 30.0911 37.3157 30.1454 37.3153 30.2006C37.3162 30.3195 37.2728 30.4345 37.1934 30.5231L37.0031 30.7772C36.8813 30.9384 36.72 31.0753 36.5438 31.1484C36.3852 31.259 36.2379 31.3849 36.1041 31.5244C35.9787 31.6709 35.8854 31.8421 35.8303 32.0269C35.8133 32.1244 35.7622 32.2128 35.6862 32.2763C35.6101 32.3398 35.5141 32.3743 35.415 32.3737H34.7409C34.5647 32.3737 34.4044 32.5003 34.3303 32.6522C34.2598 32.8198 34.1626 32.9749 34.0425 33.1116C33.922 33.2379 33.8347 33.3922 33.7884 33.5606C33.7641 33.7116 33.6422 33.8147 33.5147 33.7612C33.4441 33.729 33.3641 33.7241 33.2902 33.7475C33.2162 33.7709 33.1536 33.8209 33.1144 33.8878C32.988 34.1072 32.8336 34.3092 32.655 34.4887L32.5669 34.5619C32.4009 34.6884 32.1909 34.7869 32.0006 34.7869C31.7756 34.7869 31.6641 34.8891 31.6294 35.0362C31.5899 35.1766 31.5639 35.3204 31.5516 35.4656C31.5248 35.6062 31.484 35.7438 31.4297 35.8762L31.3659 35.9494C31.2394 36.1397 31.1409 36.3253 31.0144 36.4866L30.9656 36.5644C30.8044 36.7744 30.5897 36.9403 30.3403 36.9994C30.0746 37.0883 29.7955 37.1311 29.5153 37.1259H29.3391C29.271 37.1299 29.2048 37.1502 29.1463 37.1851C29.0877 37.22 29.0384 37.2686 29.0025 37.3266L28.9294 37.4531L28.8516 37.5994L28.6903 37.8778C28.631 37.986 28.5508 38.0814 28.4544 38.1585C28.3581 38.2356 28.2474 38.2928 28.1288 38.3269C27.867 38.3908 27.5972 38.4154 27.3281 38.4L27.1275 38.3756C26.9513 38.3756 26.7909 38.3269 26.6297 38.2491C26.5031 38.2003 26.3269 38.2491 26.2538 38.3756C26.1469 38.5298 25.9924 38.6447 25.8141 38.7028L25.4381 38.8247C25.1798 38.8885 24.9099 38.8885 24.6516 38.8247L24.4509 38.7609C24.325 38.7521 24.2037 38.7101 24.0994 38.6391C23.9856 38.5782 23.8568 38.5512 23.7281 38.5612L23.5622 38.5903C23.3128 38.6147 23.0888 38.5903 22.8638 38.5266L22.5272 38.4487C22.3718 38.4002 22.2386 38.2983 22.1513 38.1609C22.1125 38.0928 22.0583 38.0347 21.993 37.9914C21.9277 37.9481 21.8531 37.9207 21.7753 37.9116H21.375C21.1256 37.8778 20.9016 37.7897 20.7497 37.5994L20.2519 37.1259L20.0756 36.975L19.8019 36.7744L19.6406 36.6525C19.4458 36.5179 19.2213 36.4323 18.9863 36.4031L18.2391 36.2766C18.1613 36.2766 18.1125 36.2522 18.0384 36.2372L17.7506 36.1734C17.6241 36.1491 17.5013 36.0516 17.4141 35.9241C17.3409 35.8022 17.1994 35.7478 17.0775 35.8022C16.8281 35.8997 16.6284 35.9241 16.4278 35.9634H16.2516C15.9335 35.9909 15.6137 35.9353 15.3234 35.8022C15.0253 35.6756 14.8256 35.49 14.64 35.25C14.5645 35.1394 14.4677 35.0449 14.3554 34.972C14.2431 34.8991 14.1174 34.8493 13.9856 34.8253L13.6388 34.7522C13.3792 34.6985 13.1323 34.5957 12.9113 34.4494C12.6619 34.2731 12.5353 34.1128 12.4378 33.9122C12.3363 33.7182 12.2763 33.5053 12.2616 33.2869V33.1894C12.2372 32.9353 12.0609 32.7112 11.8266 32.6522C11.5727 32.5781 11.3379 32.4499 11.1384 32.2762C11.0501 32.1927 10.9799 32.0919 10.932 31.9802C10.8841 31.8685 10.8596 31.7481 10.86 31.6266L10.8891 31.0744C10.8891 30.8597 10.8253 30.6741 10.6744 30.5372C10.5234 30.3862 10.425 30.2006 10.425 30L10.3856 29.5509C10.3557 29.2218 10.3018 28.8953 10.2244 28.5741C10.1513 28.2862 10.2638 27.9975 10.4981 27.8616L10.5863 27.7978C10.6495 27.7553 10.6948 27.691 10.7137 27.6171C10.7325 27.5433 10.7235 27.4651 10.6884 27.3975L10.5863 27.2756C10.4851 27.1608 10.3554 27.0748 10.2103 27.0262C10.1128 26.9972 10.0884 26.8997 10.0884 26.8359L10.2103 26.685C10.2447 26.6429 10.2636 26.5903 10.2636 26.5359C10.2636 26.4816 10.2447 26.4289 10.2103 26.3869C10.1193 26.2907 10.0626 26.1671 10.0491 26.0353L10.0247 25.1616C10.0247 24.9853 10.0491 24.81 10.0978 24.6394C10.1513 24.4884 10.0978 24.3122 9.95157 24.2391L9.9525 24.2494ZM22.3256 22.5984C22.4138 22.5103 22.3988 22.3491 22.3256 22.2862C22.208 22.1945 22.1102 22.0801 22.0378 21.9497L21.9113 21.7491C21.8268 21.5914 21.7179 21.4481 21.5888 21.3244L21.5644 21.3C21.4401 21.1992 21.3414 21.0704 21.2766 20.9241C21.2452 20.8664 21.2288 20.8018 21.2288 20.7361C21.2288 20.6704 21.2452 20.6058 21.2766 20.5481L21.3497 20.4262C21.4298 20.2899 21.4734 20.1353 21.4763 19.9772V19.9237C21.4698 19.7906 21.426 19.6619 21.3497 19.5525C21.2946 19.4409 21.2536 19.3227 21.2278 19.2009V19.1278C21.2096 19.0519 21.2089 18.9729 21.2258 18.8967C21.2427 18.8205 21.2767 18.7492 21.3253 18.6881C21.4275 18.5269 21.5016 18.3759 21.54 18.1903V18.1612C21.5622 18.0931 21.569 18.0209 21.5597 17.9499C21.5505 17.8788 21.5255 17.8108 21.4866 17.7506C21.4486 17.692 21.4245 17.6254 21.416 17.5561C21.4076 17.4867 21.415 17.4164 21.4378 17.3503L21.5259 17.1009C21.5991 16.8759 21.7163 16.6762 21.8625 16.5L22.0388 16.3144L22.1653 16.1634L22.2384 16.0903C22.2754 16.0496 22.2979 15.9979 22.3023 15.9431C22.3067 15.8883 22.2928 15.8336 22.2628 15.7875C22.1967 15.674 22.1709 15.5415 22.1897 15.4116L22.2141 15.2353C22.2534 14.9859 22.3406 14.7375 22.5019 14.5369L22.5506 14.4881C22.7363 14.2387 22.9753 14.0728 23.2491 13.9856L23.5913 13.8637C23.7375 13.815 23.8406 13.6491 23.8406 13.4878C23.8406 13.2872 23.9044 13.1119 24.0159 12.9506L24.075 12.8869C24.2016 12.6769 24.3534 12.4622 24.4509 12.2372L24.5391 12.0759C24.563 12.0379 24.5765 11.9943 24.5784 11.9494C24.5784 11.7394 24.4519 11.5491 24.2513 11.5387L23.7047 11.4994C23.3925 11.475 23.0794 11.4994 22.7766 11.4994L21.7172 11.6259C21.5513 11.6259 21.4294 11.7478 21.4144 11.9241C21.4125 12.0072 21.3853 12.0877 21.3363 12.1549C21.2874 12.2221 21.2191 12.2727 21.1406 12.3L20.6916 12.4219L20.565 12.4612L20.1891 12.5878C20.0516 12.6329 19.925 12.7061 19.8173 12.8028C19.7097 12.8995 19.6233 13.0175 19.5638 13.1494L19.4663 13.3106C19.3375 13.5875 19.128 13.8189 18.8653 13.9744C18.6159 14.1356 18.4894 14.3991 18.465 14.6972V14.8237C18.4406 15.0731 18.3628 15.3216 18.2156 15.4978L18.1519 15.6C18.1023 15.6576 18.07 15.728 18.0587 15.8031C18.0475 15.8783 18.0577 15.9551 18.0881 16.0247C18.1519 16.1709 18.1903 16.3369 18.1763 16.4981V17.1619C18.1743 17.2411 18.1498 17.3181 18.1057 17.3838C18.0615 17.4496 17.9995 17.5014 17.9269 17.5331C17.8441 17.5631 17.77 17.6131 17.7112 17.6787C17.6525 17.7443 17.611 17.8235 17.5903 17.9091L17.5266 18.1584C17.5 18.2799 17.5094 18.4066 17.5537 18.5228C17.598 18.639 17.6752 18.7398 17.7759 18.8128C17.9766 18.9591 18.1031 19.1841 18.1519 19.4625V19.6875C18.1913 19.9369 18.3281 20.1853 18.5522 20.3128C18.7772 20.4637 18.9525 20.6887 19.05 20.9381L19.1138 21.1387C19.156 21.2624 19.2327 21.3713 19.3349 21.4527C19.4371 21.5341 19.5604 21.5846 19.6903 21.5981H19.7634C19.9884 21.5981 20.1881 21.7247 20.3156 21.9253C20.4375 22.1259 20.6381 22.2619 20.8622 22.3012L21.2138 22.3987C21.4284 22.4625 21.6291 22.575 21.7903 22.7353L21.8147 22.7644C21.8809 22.8133 21.9634 22.835 22.0452 22.8251C22.1269 22.8151 22.2018 22.7743 22.2544 22.7109L22.3425 22.6134L22.3256 22.5984ZM23.7506 21.4509C23.8725 21.5241 24 21.4847 24.0488 21.3731L24.0881 21.3141C24.1763 21.1378 24.2888 20.9625 24.4106 20.8116L24.6647 20.4356C24.6984 20.4356 24.7134 20.4112 24.7238 20.3869L25.0266 19.9866C25.1531 19.8647 25.3003 19.7766 25.4756 19.7766C25.556 19.777 25.6346 19.7535 25.7015 19.7091C25.7685 19.6647 25.8207 19.6013 25.8516 19.5272C25.9003 19.3509 25.9734 19.185 26.1253 19.0491L26.1891 18.9759C26.3156 18.8494 26.4384 18.7856 26.565 18.7266C26.7263 18.7022 26.8772 18.6731 27.0291 18.6731H27.4003C27.5513 18.6731 27.6788 18.6141 27.7519 18.4875C27.825 18.3609 27.9375 18.2775 28.0641 18.2137L28.1906 18.1603C28.3913 18.0769 28.6153 18.0141 28.8403 17.9897L29.0897 17.9653C29.2406 17.9653 29.4019 17.9653 29.5538 18.0487C29.6756 18.1369 29.8416 18.1266 29.9644 18.0244L30.0525 17.9756C30.2381 17.8491 30.4528 17.7506 30.6778 17.7262H30.7022C30.9422 17.6841 31.1865 17.6709 31.4297 17.6869H31.5516C31.8009 17.7262 32.0156 17.8134 32.1769 17.9991L32.2163 18.0478C32.3428 18.1744 32.5388 18.2775 32.7141 18.2775H32.9288C32.9925 18.2775 33.0506 18.2484 33.09 18.1894C33.1324 18.1445 33.1898 18.1168 33.2513 18.1116H33.3778C33.5541 18.1116 33.7144 18.1603 33.8756 18.2137L34.0903 18.3019C34.2909 18.3609 34.5009 18.4237 34.7156 18.4481H34.8666C34.9641 18.4481 35.0278 18.3891 35.0278 18.3019C35.0325 18.1787 35.0019 18.0567 34.9397 17.9503L34.8516 17.7497C34.7541 17.5884 34.6753 17.4131 34.6022 17.2519L34.5778 17.1881C34.5465 17.1304 34.5301 17.0658 34.5301 17.0002C34.5301 16.9345 34.5465 16.8699 34.5778 16.8122V16.7484C34.5902 16.6986 34.5842 16.646 34.561 16.6002C34.5377 16.5544 34.4988 16.5185 34.4513 16.4991H34.3538C34.1563 16.4399 33.9812 16.3226 33.8513 16.1625L33.7294 16.0359C33.6028 15.9141 33.5288 15.7237 33.4753 15.5381C33.4163 15.3769 33.2803 15.2503 33.1041 15.2503H32.5763C32.4847 15.2374 32.3966 15.2066 32.317 15.1596C32.2373 15.1127 32.1677 15.0505 32.1122 14.9766L32.0634 14.9128C31.9731 14.7822 31.9024 14.6392 31.8534 14.4881C31.7897 14.3616 31.6528 14.2875 31.5263 14.3269L31.3753 14.3756C31.1259 14.4637 30.8775 14.4975 30.6281 14.4731L30.4275 14.4487C30.2128 14.4487 30.0122 14.3606 29.8509 14.2387L29.7244 14.1506C29.6293 14.0773 29.5241 14.0179 29.4122 13.9744C29.2903 13.9256 29.1872 13.95 29.1141 14.0381L29.0503 14.1112C28.9235 14.2432 28.7574 14.3307 28.5769 14.3606L27.9028 14.4C27.7753 14.4048 27.6546 14.4589 27.5663 14.5509C27.4695 14.6374 27.3513 14.6963 27.2241 14.7216H27.1997C27.0778 14.7216 26.9503 14.8097 26.8284 14.8978V14.9222C26.7692 14.9824 26.6986 15.0303 26.6207 15.063C26.5428 15.0956 26.4592 15.1125 26.3747 15.1125L26.3259 15.1369C26.175 15.1369 26.0278 15.1369 25.8769 15.1762H25.7259C25.5159 15.21 25.35 15.3862 25.3013 15.6112L25.2525 15.8991C25.2124 16.0951 25.127 16.2791 25.0031 16.4362C24.8766 16.5872 24.7247 16.6856 24.5391 16.6856H24.3291C24.2025 16.7147 24.075 16.8516 24.0994 16.9978C24.1284 17.2125 24.0994 17.3981 24.0656 17.5884L24.0169 17.7984C23.9954 17.8874 23.9532 17.97 23.8937 18.0396C23.8343 18.1091 23.7592 18.1637 23.6747 18.1987L23.6016 18.2381H23.5772C23.5041 18.2869 23.4506 18.3994 23.5134 18.4875C23.5855 18.5988 23.6167 18.7317 23.6016 18.8634L23.5622 19.2637C23.5542 19.4083 23.5124 19.5489 23.4403 19.6744C23.4044 19.7297 23.3833 19.7933 23.3791 19.8592C23.3748 19.925 23.3875 19.9908 23.4159 20.0503L23.5378 20.3241C23.602 20.4474 23.6161 20.5908 23.5772 20.7244C23.5344 20.8448 23.5178 20.973 23.5284 21.1003C23.5284 21.2269 23.6016 21.3497 23.7047 21.4031L23.7506 21.4509ZM33.6244 30.4894C33.7509 30.6112 33.9366 30.66 34.0884 30.5625L34.3378 30.4012C34.4692 30.3108 34.5658 30.1781 34.6116 30.0253V30.0009L34.7381 29.625L34.8113 29.4984L34.8647 29.3766L34.9134 29.2884C34.9363 29.2363 34.9706 29.1899 35.0137 29.1527C35.0569 29.1156 35.1078 29.0886 35.1628 29.0737L35.2116 29.0494C35.3138 29.025 35.3775 28.9275 35.3775 28.8244C35.3775 28.7025 35.4366 28.5994 35.4994 28.5122L35.6016 28.4241L35.8509 28.1016V28.0772C35.9239 27.9745 35.9752 27.8581 36.0019 27.735C36.0226 27.6087 36.0039 27.4791 35.9484 27.3637L35.9241 27.3103C35.8803 27.2073 35.8507 27.0988 35.8359 26.9878L35.8022 26.6362L35.7628 26.2603C35.7628 26.1384 35.8116 26.0109 35.8894 25.8891C35.9728 25.7869 36.0356 25.6594 36.09 25.5375V25.4887L36.1144 25.4644C36.1388 25.3378 36.075 25.2103 35.9634 25.2103C35.8369 25.1512 35.7141 25.0491 35.6756 24.8981L35.6363 24.825C35.575 24.6054 35.5422 24.3789 35.5388 24.1509L35.5631 23.5256V23.4862C35.5622 23.3868 35.5222 23.2918 35.4519 23.2215C35.3816 23.1512 35.2866 23.1113 35.1872 23.1103H35.1628C35.0469 23.1149 34.9314 23.095 34.8237 23.0521C34.7159 23.0091 34.6185 22.944 34.5375 22.8609L34.44 22.7344L34.1859 22.4512L33.8634 22.0753C33.7429 21.9012 33.6036 21.7409 33.4481 21.5972C33.3263 21.4753 33.1359 21.3478 32.9503 21.3234L32.7009 21.2841C32.5503 21.253 32.4065 21.1952 32.2763 21.1134C32.1741 21.0356 32.0269 21.06 31.9247 21.1622L31.7634 21.3384L31.6856 21.3872C31.5975 21.4116 31.515 21.3628 31.4756 21.2606C31.4228 21.1055 31.4315 20.936 31.5 20.7872V20.7141C31.5 20.6259 31.4269 20.5631 31.3491 20.5875H31.1484C30.9225 20.5958 30.6974 20.5542 30.4894 20.4656L30.3628 20.4122C30.2352 20.3488 30.0947 20.3154 29.9522 20.3147C29.8203 20.3117 29.6901 20.3455 29.5763 20.4122L29.5275 20.4516C29.3766 20.5475 29.2036 20.603 29.025 20.6128H28.6144C28.4331 20.611 28.2564 20.6693 28.1119 20.7787C27.9512 20.8752 27.7742 20.9413 27.5897 20.9737L27.2531 21.0272C27.088 21.062 26.9328 21.1338 26.7994 21.2372C26.6775 21.3637 26.5013 21.4378 26.34 21.4866L26.2763 21.5156C26.0713 21.5759 25.8946 21.7076 25.7784 21.8869L25.6275 22.0378C25.5846 22.0957 25.5615 22.1659 25.5615 22.238C25.5615 22.31 25.5846 22.3802 25.6275 22.4381C25.7006 22.5647 25.8525 22.5994 26.0034 22.5647L26.1891 22.4869C26.2866 22.4531 26.4038 22.4869 26.4872 22.5356C26.5293 22.5696 26.5778 22.5949 26.6298 22.6101C26.6817 22.6252 26.7362 22.6298 26.79 22.6237L27.1022 22.59C27.2784 22.59 27.4538 22.59 27.6244 22.6387C27.8147 22.7025 27.9759 22.7653 28.1269 22.8881C28.2689 23.0035 28.4424 23.0734 28.6247 23.0887C28.815 23.1131 29.0006 23.1525 29.1769 23.2153L29.2988 23.2397C29.4253 23.2791 29.5284 23.3616 29.6016 23.4891C29.6653 23.5912 29.7234 23.7384 29.7234 23.865V23.9044C29.7234 24.0506 29.85 24.1537 29.9775 24.1537H30.0506C30.2513 24.1537 30.4659 24.1781 30.6759 24.2419L30.7641 24.2756C30.8988 24.3254 31.0158 24.4138 31.1006 24.5297C31.2028 24.6516 31.2619 24.7791 31.3013 24.9009L31.3406 25.0772C31.3744 25.2675 31.3894 25.4531 31.3894 25.6537V25.7175C31.3894 25.8394 31.4775 25.9669 31.6144 26.0156C31.7409 26.04 31.8881 26.0934 32.0297 26.1666L32.0888 26.1909C32.2547 26.2884 32.4159 26.4159 32.5378 26.5669L32.6016 26.655C32.7675 26.8406 32.8509 27.0797 32.8509 27.3141V27.4022C32.8509 27.5925 32.8172 27.7781 32.7534 27.9544C32.7047 28.1053 32.7534 28.2816 32.9147 28.3303L33.0028 28.3941C33.1931 28.4672 33.3544 28.6041 33.4763 28.7653C33.6028 28.9556 33.6525 29.1656 33.6525 29.3906V29.7666C33.6281 29.8931 33.5934 29.9916 33.5306 30.0787C33.4678 30.1659 33.4669 30.2934 33.5306 30.3816L33.6038 30.5034L33.6244 30.4894ZM25.6256 24.0881H25.6013C25.5478 24.0881 25.5234 24.1519 25.5375 24.2147L25.5863 24.4641C25.635 24.6647 25.6594 24.8644 25.6884 25.065C25.7128 25.2656 25.8103 25.4362 25.9622 25.5628H26.0109C26.1027 25.635 26.178 25.726 26.2319 25.8296C26.2857 25.9332 26.3168 26.0471 26.3231 26.1637V26.7891C26.2988 26.9109 26.3231 27.0384 26.4009 27.1406L26.46 27.1997C26.5751 27.3428 26.6417 27.5187 26.6503 27.7022L26.6841 28.3903C26.6841 28.5516 26.5866 28.6884 26.4347 28.7128L26.3128 28.7372C26.2247 28.7372 26.1863 28.8394 26.1863 28.9275C26.1863 29.025 26.2256 29.1375 26.2594 29.2397V29.2641C26.2988 29.3859 26.3128 29.5134 26.2988 29.64L26.25 29.9766C26.2041 30.221 26.1199 30.4567 26.0006 30.675L25.9125 30.8259C25.8582 30.9352 25.7687 31.023 25.6584 31.0753C25.5992 31.0997 25.5461 31.1369 25.503 31.1842C25.4599 31.2315 25.4278 31.2878 25.4091 31.3491L25.3116 31.7981C25.2407 32.0637 25.1304 32.3171 24.9844 32.55H24.96C24.8108 32.7544 24.6193 32.9242 24.3984 33.0478L24.2475 33.15L23.8716 33.3356C23.8117 33.3632 23.7598 33.4054 23.7204 33.4583C23.6811 33.5112 23.6557 33.5732 23.6466 33.6384L23.5875 34.0491C23.5481 34.2984 23.4609 34.5131 23.2847 34.6744L23.1234 34.8647L22.9331 35.0503L22.7475 35.2509C22.5966 35.4272 22.3716 35.5003 22.1222 35.4656L21.6731 35.3775L21.2578 35.3241H21.1453C21.0966 35.3775 21.0863 35.4506 21.1209 35.5247C21.2091 35.6756 21.3459 35.7787 21.4969 35.7787L21.7706 35.8275C21.8972 35.8275 22.0491 35.8912 22.1709 35.9494C22.2975 36.0375 22.4203 36.1003 22.5713 36.1397H22.5956C22.7616 36.2034 22.9322 36.2128 23.0981 36.2034L23.2838 36.1744C23.4984 36.15 23.6991 36.1744 23.8697 36.2522L24.0206 36.3009C24.0844 36.3253 24.1819 36.3009 24.2456 36.2372C24.3172 36.1673 24.402 36.1125 24.495 36.0759L24.5972 36.0516C24.7584 36.0028 24.9197 35.9737 25.095 35.9737H25.1972C25.3434 35.9737 25.485 36.0028 25.6078 36.0759L25.6566 36.1003C25.7447 36.1397 25.8469 36.1003 25.9106 36.0272C25.9444 35.9391 26.0325 35.8509 26.1206 35.7778L26.4328 35.5631L26.6334 35.4366L26.7356 35.3775C26.8694 35.2916 27.0258 35.2475 27.1847 35.2509L27.6338 35.2116C27.7211 35.2005 27.8033 35.164 27.8701 35.1067C27.9369 35.0494 27.9854 34.9737 28.0097 34.8891C28.0584 34.6987 28.1316 34.5131 28.2591 34.3519C28.3856 34.1859 28.5084 34.0491 28.635 33.9272C28.7756 33.8095 28.9499 33.7392 29.1328 33.7266H29.235C29.3323 33.7071 29.4195 33.6537 29.4812 33.5759C29.5428 33.4982 29.5748 33.401 29.5716 33.3019V32.4619C29.5959 32.34 29.6447 32.1741 29.7178 32.0512L29.9719 31.6753L30.0694 31.5487C30.1472 31.485 30.1959 31.4025 30.2841 31.2994L30.4059 31.1381C30.4838 31.0116 30.4838 30.8503 30.3816 30.7378C30.2644 30.6055 30.191 30.4401 30.1716 30.2644V30.2109C30.1419 30.0023 30.1534 29.7899 30.2053 29.5856V29.5266C30.2691 29.3606 30.3563 29.1994 30.4594 29.0484C30.5071 28.9901 30.5297 28.9152 30.5224 28.8401C30.515 28.7651 30.4782 28.6961 30.42 28.6481L30.2053 28.4625C30.0338 28.3069 29.9273 28.0923 29.9072 27.8616L29.8828 27.6122C29.8828 27.5344 29.8828 27.4509 29.8584 27.3628L29.8341 27.1725C29.8181 27.071 29.7806 26.9741 29.7242 26.8883C29.6678 26.8024 29.5937 26.7296 29.5069 26.6747L29.4188 26.6503C29.2798 26.5633 29.1602 26.4488 29.0672 26.3137C28.9697 26.1872 28.9209 26.0109 28.8816 25.8356L28.8422 25.6256C28.8422 25.5478 28.7934 25.4991 28.7203 25.4644L28.1194 25.2741C27.9928 25.2497 27.87 25.1522 27.7828 25.0641H27.7584C27.6806 24.9619 27.5578 24.9619 27.48 25.035L27.3581 25.1616C27.3338 25.2009 27.3047 25.2103 27.27 25.2009C27.1922 25.2009 27.1434 25.1372 27.1678 25.0744C27.1819 24.9766 27.1698 24.8768 27.133 24.7851C27.0961 24.6934 27.0357 24.6131 26.9578 24.5522L26.7919 24.4256L26.4206 24.1762C26.3184 24.1369 26.1666 24.1762 26.1178 24.2981L26.0691 24.3759C26.0691 24.4003 26.0297 24.4097 26.0203 24.4247C25.9669 24.4247 25.8938 24.4247 25.8938 24.3609L25.8544 24.2972C25.8206 24.2241 25.7325 24.1753 25.6538 24.1509L25.6256 24.0881ZM24.1266 25.3378L24.0628 25.2741C23.9991 25.2253 23.9363 25.2347 23.8725 25.2984C23.7826 25.4471 23.715 25.6082 23.6719 25.7766V25.8009C23.6381 25.9622 23.4863 26.0747 23.3353 26.0503H23.1891C23.105 26.052 23.0251 26.0869 22.9666 26.1473C22.9081 26.2077 22.8759 26.2887 22.8769 26.3728C22.8769 26.5978 22.7991 26.8266 22.6622 26.9981L22.5891 27.0759C22.4577 27.2344 22.2831 27.3514 22.0866 27.4125L21.9891 27.4369C21.9253 27.4531 21.8677 27.4877 21.8233 27.5364C21.779 27.585 21.7499 27.6456 21.7397 27.7106C21.7397 27.8372 21.6619 27.9647 21.5634 28.0622L21.4369 28.1597C21.2859 28.3256 21.0609 28.4137 20.8359 28.4381L20.2106 28.5019C20.01 28.5019 19.8394 28.6237 19.7128 28.8141C19.5863 28.9997 19.4006 29.1262 19.215 29.1506L18.9366 29.175C18.7283 29.2032 18.5167 29.1949 18.3113 29.1506L18.1894 29.1262L17.8472 29.0381C17.7946 29.0191 17.7373 29.0175 17.6837 29.0333C17.6301 29.0492 17.5829 29.0817 17.5491 29.1262L17.4225 29.2875C17.3461 29.3764 17.2494 29.4456 17.1405 29.489C17.0316 29.5324 16.9138 29.5488 16.7972 29.5369L15.9863 29.4394C15.8597 29.4394 15.7613 29.3756 15.6497 29.3128C15.5231 29.2397 15.435 29.1516 15.3469 29.0634L15.0347 28.6875C15.0009 28.6631 14.9372 28.6481 14.8734 28.6631L14.6972 28.7362L13.9988 28.9125C13.8722 28.9519 13.7109 28.9125 13.5881 28.8394C13.4616 28.7372 13.3097 28.7128 13.1588 28.7128H12.9975C12.9609 28.7221 12.9265 28.7387 12.8965 28.7616C12.8664 28.7845 12.8413 28.8132 12.8225 28.846C12.8038 28.8788 12.7919 28.915 12.7875 28.9526C12.7831 28.9901 12.7863 29.0281 12.7969 29.0644L12.8456 29.3137C12.885 29.4403 12.8747 29.5875 12.8119 29.7141C12.7491 29.8406 12.7631 29.9634 12.8456 30.09L12.9234 30.1875C13.0209 30.3384 13.1728 30.4659 13.2994 30.5878C13.4213 30.7144 13.5488 30.8372 13.6463 31.0031L13.8366 31.3397C13.8778 31.4232 13.9419 31.4932 14.0214 31.5417C14.1009 31.5902 14.1925 31.6151 14.2856 31.6134C14.4713 31.6134 14.6616 31.6772 14.8078 31.7991L15.1838 32.1506C15.2859 32.2387 15.4331 32.2528 15.5353 32.175L15.5991 32.1506C15.6722 32.1506 15.7209 32.1994 15.7209 32.2772V32.3409C15.7209 32.5022 15.8475 32.6531 16.0088 32.7122L16.5703 32.8387C16.7709 32.9025 16.9706 32.9653 17.1609 33.0881H17.2584C17.2837 33.0881 17.3086 33.0826 17.3316 33.0722C17.3546 33.0617 17.3751 33.0465 17.3918 33.0276C17.4085 33.0086 17.4209 32.9863 17.4283 32.9621C17.4357 32.938 17.4379 32.9125 17.4347 32.8875V32.4525C17.4347 32.3259 17.4834 32.1984 17.5856 32.1497L17.6494 32.1253C17.7084 32.1497 17.7713 32.1984 17.7469 32.2519V32.4619C17.7469 32.6231 17.7956 32.7741 17.9081 32.8866C17.9613 32.943 18.0298 32.9827 18.1053 33.0009C18.1807 33.019 18.2598 33.0148 18.3328 32.9887C18.4838 32.925 18.6356 32.9109 18.7969 32.925L19.2609 32.9494C19.4859 32.9737 19.6959 32.9494 19.8863 32.8612C20.1113 32.7881 20.2969 32.685 20.4722 32.5491L20.5453 32.5003L20.9213 32.1637C21.0369 32.0447 21.195 31.9763 21.3609 31.9734H21.8588C21.9854 31.9567 22.103 31.899 22.1938 31.8091C22.2845 31.7192 22.3433 31.6021 22.3613 31.4756L22.41 31.2262C22.41 31.0603 22.4831 30.9141 22.5956 30.7866C22.7222 30.66 22.845 30.5859 22.9716 30.5372L23.1225 30.4734C23.2284 30.4271 23.3233 30.3588 23.4007 30.2729C23.4781 30.1871 23.5364 30.0857 23.5716 29.9756L23.6447 29.6728C23.7084 29.4234 23.835 29.175 24.0206 29.0137L24.045 28.9847C24.1959 28.8628 24.2213 28.6134 24.1228 28.4381L24.0834 28.35C24.0397 28.2799 24.0133 28.2004 24.0065 28.118C23.9996 28.0357 24.0125 27.9529 24.0441 27.8766C24.1078 27.7003 24.1706 27.5494 24.2691 27.3984L24.3956 27.2222C24.4444 27.1247 24.4444 26.9728 24.3713 26.8856C24.2919 26.7871 24.2474 26.6652 24.2447 26.5387L24.2203 26.3625V25.9378C24.2389 25.7982 24.2254 25.6561 24.1809 25.5225L24.1322 25.3762L24.1266 25.3378ZM22.3397 24.3853V24.3516C22.3397 24.225 22.2619 24.1509 22.1634 24.1509H21.8363C21.7203 24.1753 21.6006 24.1753 21.4847 24.1509H20.9231C20.6353 24.1509 20.3616 24.0975 20.0878 24.0244L19.785 23.9512L19.5356 23.8734L18.9741 23.6878C18.8299 23.6466 18.6962 23.5753 18.5818 23.4785C18.4673 23.3816 18.3748 23.2616 18.3103 23.1262L18.2466 22.9997C18.1584 22.8141 17.9728 22.7119 17.7872 22.7503C17.5725 22.7503 17.3625 22.7503 17.1619 22.6528L17.0109 22.5891C16.7231 22.4625 16.5131 22.2131 16.5131 21.8766L16.4597 21.54C16.4259 21.3637 16.3134 21.2034 16.1616 21.1397C15.9858 21.0589 15.8177 20.9626 15.6591 20.8519L15.6 20.8125C15.4024 20.6613 15.2502 20.4586 15.1603 20.2266L15.1359 20.1534C15.0716 19.951 15.0632 19.7349 15.1116 19.5281L15.1359 19.4503C15.1847 19.2891 15.1997 19.1278 15.1997 18.9525C15.1978 18.7963 15.1345 18.6471 15.0234 18.5372L14.8472 18.3759C14.7474 18.2953 14.6658 18.1945 14.6078 18.0801C14.5498 17.9657 14.5167 17.8403 14.5106 17.7122C14.482 17.4455 14.4902 17.1761 14.535 16.9116V16.8384C14.5348 16.7724 14.5084 16.7091 14.4617 16.6624C14.415 16.6157 14.3517 16.5893 14.2856 16.5891H14.2463C14.085 16.5891 13.9481 16.6866 13.8703 16.8384C13.8081 17.004 13.7152 17.1564 13.5966 17.2875L13.5478 17.3512L13.1719 17.7272C13.0453 17.8491 12.9713 18.0394 12.9469 18.225C12.9235 18.4154 12.8726 18.6014 12.7959 18.7772L12.7716 18.8409C12.7112 18.9899 12.6118 19.1198 12.4838 19.2169C12.4223 19.2638 12.3717 19.3234 12.3355 19.3917C12.2992 19.46 12.2782 19.5353 12.2738 19.6125L12.2494 20.1891C12.2494 20.4384 12.21 20.6916 12.1228 20.9409L12.0984 21.0384C12.0665 21.1139 12.0643 21.1987 12.0923 21.2758C12.1203 21.3528 12.1764 21.4164 12.2494 21.4537L12.7716 21.6787L12.8203 21.7031C12.8597 21.7031 12.8738 21.7275 12.8841 21.7669C12.9234 21.8156 12.8841 21.8887 12.8447 21.8887L12.7228 21.9525C12.6497 21.9769 12.5963 22.0547 12.5719 22.1428L12.5475 22.2647V22.2891L12.4209 22.9922C12.3966 23.0897 12.3966 23.2022 12.3966 23.3147C12.3966 23.3629 12.411 23.41 12.4379 23.4501C12.4648 23.4901 12.5029 23.5213 12.5475 23.5397L12.8213 23.6662C12.9478 23.7394 13.0997 23.8275 13.1972 23.9156L13.3238 24.0178C13.3628 24.0688 13.4128 24.1105 13.47 24.1397L13.5234 24.1884C13.6095 24.2647 13.6709 24.3649 13.6997 24.4762L13.8216 25.0378C13.8216 25.1887 13.9481 25.3162 14.0709 25.35L14.2716 25.4137C14.2716 25.4137 14.3109 25.4137 14.3353 25.4381L14.5847 25.5159C14.7853 25.5797 14.9606 25.6922 15.1125 25.8384C15.2634 25.965 15.4106 26.1262 15.5372 26.3025L15.5859 26.3512C15.6881 26.4778 15.8353 26.5416 15.9863 26.5022C16.1372 26.4628 16.2984 26.4534 16.4597 26.4534H16.65C16.7719 26.4534 16.9378 26.4872 17.0747 26.5753C17.1966 26.6531 17.3625 26.7019 17.5097 26.7656H17.5491C17.6207 26.7943 17.6983 26.8049 17.775 26.7964C17.8517 26.7879 17.9251 26.7606 17.9888 26.7169C18.1165 26.6162 18.2752 26.5629 18.4378 26.5659L19.0238 26.5997C19.1503 26.5997 19.2731 26.5753 19.3359 26.4778H19.3603L19.575 26.2772L19.6388 26.2134C19.6882 26.1568 19.749 26.111 19.8171 26.0791C19.8852 26.0471 19.9592 26.0296 20.0344 26.0278H20.6006C20.7469 26.0278 20.8884 25.9012 20.9475 25.7784C20.9803 25.7131 21.0278 25.6562 21.0861 25.6121C21.1445 25.5681 21.2122 25.538 21.2841 25.5244L21.5381 25.4756C21.6356 25.4756 21.7238 25.3875 21.7631 25.275C21.793 25.159 21.8578 25.0549 21.9488 24.9769L22.1494 24.7762C22.2638 24.6706 22.3394 24.5297 22.3641 24.3759L22.3397 24.3853Z" fill="white"/>
</g>
</g>
<defs>
<clipPath id="clip0_1_25">
<rect width="48" height="48" fill="white"/>
</clipPath>
<clipPath id="clip1_1_25">
<rect width="30" height="30" fill="white" transform="translate(9 9)"/>
</clipPath>
</defs>
</svg>
