<svg width="48" height="48" viewBox="0 0 48 48" fill="none" xmlns="http://www.w3.org/2000/svg">
<g clip-path="url(#clip0_107_18)">
<path d="M36.75 0H11.25C5.0368 0 0 5.0368 0 11.25V36.75C0 42.9632 5.0368 48 11.25 48H36.75C42.9632 48 48 42.9632 48 36.75V11.25C48 5.0368 42.9632 0 36.75 0Z" fill="#03031E"/>
<g clip-path="url(#clip1_107_18)">
<path d="M33.8563 13.8825C33.6969 13.8859 33.5424 13.9382 33.4138 14.0325C33.3138 14.1325 33.2126 14.2775 33.2126 14.4238C33.2126 14.6738 33.5076 15.0162 34.0538 15.5775C36.3313 17.77 37.4763 20.4562 37.4688 23.695C37.4601 27.2787 36.2563 30.1575 33.9138 32.3875C33.4213 32.8287 33.2188 33.175 33.2176 33.4712C33.2176 33.6162 33.3176 33.7675 33.4176 33.9125C33.537 34.0287 33.6928 34.1002 33.8588 34.115C34.4013 34.115 35.1588 33.475 36.1501 32.2287C38.0776 29.8662 38.9501 27.2562 38.9988 23.6987C39.0438 20.14 37.9276 17.7275 35.7451 15.2362C34.9576 14.3462 34.3038 13.8837 33.8563 13.8825ZM14.1451 13.885C13.6976 13.885 13.0426 14.3475 12.2576 15.2388C10.0726 17.73 8.95631 20.1425 9.00131 23.7012C9.05131 27.2587 9.92256 29.8675 11.8513 32.2312C12.8401 33.4775 13.5988 34.1187 14.1413 34.1175C14.307 34.1031 14.4626 34.0315 14.5813 33.915C14.6813 33.77 14.7813 33.6188 14.7813 33.4738C14.7813 33.1775 14.5788 32.8312 14.0863 32.3912C11.7451 30.16 10.5401 27.2825 10.5313 23.6975C10.5238 20.4587 11.6688 17.7725 13.9463 15.58C14.4926 15.0187 14.7888 14.6775 14.7876 14.4262C14.7876 14.28 14.6876 14.135 14.5863 14.035C14.4577 13.9407 14.3032 13.8884 14.1438 13.885H14.1451ZM22.9651 15.0037C22.9651 15.0037 23.7838 17.605 19.6538 23.4125C15.7088 28.9537 20.9601 32.35 21.4438 32.645C21.0926 32.42 18.9426 30.77 21.9463 25.8662C22.5288 24.9037 23.2913 24.0287 24.2388 22.065C24.2388 22.065 25.0763 23.2475 24.6388 25.8125C23.9851 29.6887 27.4776 28.58 27.5313 28.6337C28.7513 30.0712 26.5213 32.5963 26.3851 32.675C26.2501 32.7513 32.7551 28.7625 28.1338 22.7562C27.8176 23.0725 27.4063 24.5587 26.5501 24.3387C25.6951 24.1212 29.2063 19.9712 22.9651 15.0037ZM21.4438 32.645C21.4726 32.665 21.4913 32.675 21.4913 32.675L21.4438 32.645Z" fill="white"/>
</g>
</g>
<defs>
<clipPath id="clip0_107_18">
<rect width="48" height="48" fill="white"/>
</clipPath>
<clipPath id="clip1_107_18">
<rect width="30" height="30" fill="white" transform="translate(9 9)"/>
</clipPath>
</defs>
</svg>
