<svg width="48" height="48" viewBox="0 0 48 48" fill="none" xmlns="http://www.w3.org/2000/svg">
<g clip-path="url(#clip0_5_55)">
<path d="M36.75 0H11.25C5.0368 0 0 5.0368 0 11.25V36.75C0 42.9632 5.0368 48 11.25 48H36.75C42.9632 48 48 42.9632 48 36.75V11.25C48 5.0368 42.9632 0 36.75 0Z" fill="#242938"/>
<g clip-path="url(#clip1_5_55)">
<path d="M17.4285 32.9114V23.6866L14.5676 21.0694L12.0022 19.617V31.2835C12.0022 32.1842 12.732 32.9114 13.6301 32.9114H17.4285Z" fill="#4285F4"/>
<path d="M30.4515 32.9114H34.2499C35.1507 32.9114 35.8778 32.1815 35.8778 31.2835V19.6171L32.9721 21.2806L30.4515 23.6866V32.9114Z" fill="#34A853"/>
<path d="M17.4285 23.6866L17.0392 20.0822L17.4285 16.6325L23.94 21.5162L30.4515 16.6325L30.887 19.896L30.4515 23.6866L23.94 28.5703L17.4285 23.6866Z" fill="#EA4335"/>
<path d="M30.4515 16.6325V23.6866L35.8778 19.617V17.4464C35.8778 15.4333 33.5798 14.2857 31.971 15.493L30.4515 16.6325Z" fill="#FBBC04"/>
<path d="M12.0024 19.617L14.4981 21.4888L17.4287 23.6866V16.6325L15.9093 15.493C14.2977 14.2856 12.0024 15.4333 12.0024 17.4463V19.617Z" fill="#C5221F"/>
</g>
</g>
<defs>
<clipPath id="clip0_5_55">
<rect width="48" height="48" fill="white"/>
</clipPath>
<clipPath id="clip1_5_55">
<rect width="23.88" height="18" fill="white" transform="translate(12 15)"/>
</clipPath>
</defs>
</svg>
