<svg width="48" height="48" viewBox="0 0 48 48" fill="none" xmlns="http://www.w3.org/2000/svg">
<g clip-path="url(#clip0_1_10)">
<path d="M36.75 0H11.25C5.0368 0 0 5.0368 0 11.25V36.75C0 42.9632 5.0368 48 11.25 48H36.75C42.9632 48 48 42.9632 48 36.75V11.25C48 5.0368 42.9632 0 36.75 0Z" fill="#0F0F12"/>
<g clip-path="url(#clip1_1_10)">
<path d="M29.0287 28.9537C29.6578 28.3256 30.676 28.3272 31.3031 28.9574C31.9301 29.5875 31.9284 30.6075 31.2994 31.2356L28.5062 34.0248C25.9292 36.598 21.727 36.6353 19.1065 34.1114C19.0914 34.0969 17.9245 32.9528 14.0753 29.1783C11.5145 26.6674 11.2593 22.6495 13.6691 20.0694L18.1622 15.2584C20.5539 12.6974 24.9626 12.4175 27.6971 14.6289L31.7779 17.9292C32.469 18.4881 32.5769 19.5023 32.019 20.1946C31.4611 20.8869 30.4486 20.995 29.7575 20.4361L25.6768 17.1359C24.2467 15.9794 21.745 16.1382 20.511 17.4596L16.0178 22.2706C14.8447 23.5267 14.9732 25.5502 16.3251 26.8758C19.1517 29.6475 21.3302 31.7835 21.3327 31.7859C22.695 33.0981 24.8979 33.0785 26.2355 31.7428L29.0287 28.9537Z" fill="#FFA116"/>
<path fill-rule="evenodd" clip-rule="evenodd" d="M22.2432 26.1625C21.355 26.1625 20.635 25.4413 20.635 24.5515C20.635 23.6618 21.355 22.9405 22.2432 22.9405H34.1035C34.9917 22.9405 35.7117 23.6618 35.7117 24.5515C35.7117 25.4413 34.9917 26.1625 34.1035 26.1625H22.2432Z" fill="#B3B3B3"/>
<path fill-rule="evenodd" clip-rule="evenodd" d="M24.4644 8.51039C25.0711 7.86068 26.0888 7.82673 26.7374 8.43457C27.386 9.04242 27.4199 10.0619 26.8131 10.7116L16.0179 22.2706C14.8447 23.5266 14.9732 25.5501 16.3251 26.8758L21.3105 31.7645C21.9452 32.3868 21.956 33.4068 21.3347 34.0426C20.7134 34.6784 19.6952 34.6893 19.0605 34.0669L14.0751 29.1783C11.5145 26.6672 11.2593 22.6493 13.6693 20.0693L24.4644 8.51039Z" fill="white"/>
</g>
</g>
<defs>
<clipPath id="clip0_1_10">
<rect width="48" height="48" fill="white"/>
</clipPath>
<clipPath id="clip1_1_10">
<rect width="23.7117" height="28" fill="white" transform="translate(12 8)"/>
</clipPath>
</defs>
</svg>
