<svg width="48" height="48" viewBox="0 0 48 48" fill="none" xmlns="http://www.w3.org/2000/svg">
<g clip-path="url(#clip0_7_77)">
<path d="M36.75 0H11.25C5.0368 0 0 5.0368 0 11.25V36.75C0 42.9632 5.0368 48 11.25 48H36.75C42.9632 48 48 42.9632 48 36.75V11.25C48 5.0368 42.9632 0 36.75 0Z" fill="#242938"/>
<path d="M12.7345 11.0584C12.048 11.2157 11.3328 11.9595 11.1468 12.7176C10.9609 13.4614 10.9466 19.7551 11.1325 20.5561C11.2899 21.2713 12.0623 22.058 12.7488 22.2153C13.9647 22.4871 15.1948 21.6861 15.4379 20.4846C15.5953 19.6406 15.5953 13.4185 15.4379 12.7176C15.2949 12.1598 14.5654 11.2586 14.1506 11.1442C13.5355 10.9869 13.1636 10.9583 12.7345 11.0584Z" fill="#0097A7"/>
<path d="M19.6003 11.0584C18.9138 11.2158 18.1986 11.9596 18.0126 12.7177C17.8124 13.4758 17.7981 26.6066 17.9983 27.4219C18.1557 28.1371 18.9281 28.9238 19.6146 29.0811C20.8305 29.3529 22.0606 28.5519 22.3037 27.3504C22.4611 26.5065 22.4611 13.4185 22.3037 12.7177C22.1607 12.1598 21.4312 11.2587 21.0164 11.1442C20.4013 10.9869 20.0294 10.9583 19.6003 11.0584Z" fill="#0097A7"/>
<path d="M26.4518 11.0584C26.1944 11.1299 25.7509 11.3874 25.4792 11.6592C24.5923 12.546 24.5923 13.8476 25.4792 14.7345C27.0383 16.3079 29.5986 14.8489 29.1409 12.6604C29.0408 12.1598 28.2684 11.2444 27.8822 11.1442C27.2671 10.9869 26.8952 10.9583 26.4518 11.0584Z" fill="#0097A7"/>
<path d="M33.3319 11.0584C32.6453 11.2157 31.9302 11.9595 31.7442 12.7176C31.544 13.4757 31.5296 33.4581 31.7299 34.2877C31.8872 35.0029 32.6596 35.7896 33.3462 35.9469C34.562 36.2187 35.7922 35.4177 36.0353 34.2162C36.1927 33.3722 36.1927 13.4185 36.0353 12.7176C35.8923 12.1598 35.1628 11.2587 34.748 11.1442C34.1329 10.9869 33.761 10.9583 33.3319 11.0584Z" fill="#0097A7"/>
<path d="M26.4661 17.9242C25.7795 18.0815 25.0644 18.8253 24.8784 19.5834C24.6782 20.3415 24.6639 33.4724 24.8641 34.2877C25.0214 35.0029 25.7938 35.7896 26.4804 35.9469C27.6962 36.2187 28.9264 35.4177 29.1695 34.2162C29.3269 33.3722 29.3269 20.2843 29.1695 19.5834C29.0265 19.0256 28.297 18.1245 27.8822 18.01C27.2671 17.8527 26.8952 17.8241 26.4661 17.9242Z" fill="#0097A7"/>
<path d="M12.7345 24.79C12.048 24.9473 11.3328 25.6911 11.1468 26.4492C10.9609 27.193 10.9466 33.4867 11.1325 34.2877C11.2899 35.0029 12.0623 35.7896 12.7488 35.9469C13.9647 36.2187 15.1948 35.4177 15.4379 34.2162C15.5953 33.3722 15.5953 27.1501 15.4379 26.4492C15.2949 25.8914 14.5654 24.9902 14.1506 24.8758C13.5355 24.7185 13.1636 24.6899 12.7345 24.79Z" fill="#0097A7"/>
<path d="M19.586 31.6558C19.3286 31.7273 18.8851 31.9848 18.6134 32.2566C17.7265 33.1434 17.7265 34.445 18.6134 35.3319C20.1725 36.9053 22.7328 35.4463 22.2751 33.2578C22.175 32.7572 21.4026 31.8417 21.0164 31.7416C20.4013 31.5843 20.0294 31.5557 19.586 31.6558Z" fill="#0097A7"/>
</g>
<defs>
<clipPath id="clip0_7_77">
<rect width="48" height="48" fill="white"/>
</clipPath>
</defs>
</svg>
