<svg width="48" height="48" viewBox="0 0 48 48" fill="none" xmlns="http://www.w3.org/2000/svg">
<g clip-path="url(#clip0_7_65)">
<path d="M36.75 0H11.25C5.0368 0 0 5.0368 0 11.25V36.75C0 42.9632 5.0368 48 11.25 48H36.75C42.9632 48 48 42.9632 48 36.75V11.25C48 5.0368 42.9632 0 36.75 0Z" fill="#242938"/>
<path d="M35.4541 24.6098C37.5645 25.8466 38.9827 28.1318 38.9871 30.7484C38.9946 34.687 35.7956 37.8858 31.8434 37.8921C27.8911 37.8996 24.6811 34.7116 24.6738 30.773C24.6691 28.1564 26.0791 25.8668 28.1857 24.6216L30.2421 28.0852C30.2934 28.1719 30.2641 28.2837 30.1807 28.3406C29.4026 28.868 28.8926 29.7577 28.8945 30.7657C28.8973 32.3817 30.2147 33.69 31.8359 33.6863C33.4575 33.6834 34.7693 32.3714 34.7665 30.7556C34.7648 29.7478 34.252 28.8595 33.472 28.335C33.3888 28.2783 33.3586 28.1665 33.4097 28.0795L35.4541 24.6098Z" fill="#128DFF"/>
<path d="M19.6587 24.5677C18.5908 23.9716 17.3878 23.6595 16.1648 23.6613C12.2116 23.6613 9.0082 26.8547 9.0082 30.7934C9.0082 34.7318 12.2116 37.9254 16.1648 37.9254C20.1366 37.9254 23.4187 34.5652 23.3189 30.6101H19.2905C19.1843 30.6101 19.1011 30.6998 19.1002 30.8051C19.0901 32.3808 17.7708 33.7193 16.1648 33.7193C14.5425 33.7193 13.2288 32.4091 13.2288 30.7931C13.2288 29.1773 14.5425 27.8672 16.1648 27.8672C16.5888 27.8672 16.9927 27.9569 17.3569 28.1189C17.4466 28.1583 17.5528 28.1283 17.6023 28.0448L19.6587 24.5677Z" fill="#8BDA67"/>
<path d="M20.2371 23.4487C18.1296 22.2082 16.7152 19.9205 16.7152 17.3039C16.7152 13.3652 19.9195 10.1719 23.8718 10.1719C27.8241 10.1719 31.0284 13.3652 31.0284 17.3039C31.0284 19.9205 29.614 22.2082 27.5065 23.4487L25.4555 19.9828C25.4041 19.8961 25.4334 19.7843 25.5178 19.7273C26.2959 19.2009 26.8076 18.312 26.8076 17.3039C26.8076 15.6881 25.493 14.378 23.8716 14.378C22.2502 14.378 20.9355 15.6881 20.9355 17.3041C20.9355 18.312 21.4472 19.2009 22.2255 19.7276C22.3099 19.7843 22.339 19.8959 22.2877 19.983L20.2371 23.4487Z" fill="#FF2A44"/>
</g>
<defs>
<clipPath id="clip0_7_65">
<rect width="48" height="48" fill="white"/>
</clipPath>
</defs>
</svg>
