<svg width="48" height="48" viewBox="0 0 48 48" fill="none" xmlns="http://www.w3.org/2000/svg">
<g clip-path="url(#clip0_3_36)">
<path d="M36.75 0H11.25C5.0368 0 0 5.0368 0 11.25V36.75C0 42.9632 5.0368 48 11.25 48H36.75C42.9632 48 48 42.9632 48 36.75V11.25C48 5.0368 42.9632 0 36.75 0Z" fill="#212126"/>
<path d="M2.7358 21.1818V27H1.50568V21.1818H2.7358ZM3.52628 22.196V21.1818H8.30469V22.196H6.52344V27H5.30753V22.196H3.52628ZM12.2479 22.8551C12.2251 22.6259 12.1276 22.4479 11.9553 22.321C11.7829 22.1941 11.549 22.1307 11.2536 22.1307C11.0528 22.1307 10.8833 22.1591 10.745 22.2159C10.6068 22.2708 10.5007 22.3475 10.4268 22.446C10.3549 22.5445 10.3189 22.6562 10.3189 22.7812C10.3151 22.8854 10.3369 22.9763 10.3842 23.054C10.4335 23.1316 10.5007 23.1989 10.5859 23.2557C10.6712 23.3106 10.7696 23.3589 10.8814 23.4006C10.9931 23.4403 11.1125 23.4744 11.2393 23.5028L11.7621 23.6278C12.0159 23.6847 12.2488 23.7604 12.4609 23.8551C12.6731 23.9498 12.8568 24.0663 13.0121 24.2045C13.1674 24.3428 13.2876 24.5057 13.3729 24.6932C13.46 24.8807 13.5045 25.0956 13.5064 25.3381C13.5045 25.6941 13.4136 26.0028 13.2337 26.2642C13.0556 26.5237 12.7981 26.7254 12.4609 26.8693C12.1257 27.0114 11.7214 27.0824 11.2479 27.0824C10.7782 27.0824 10.3691 27.0104 10.0206 26.8665C9.67401 26.7225 9.40317 26.5095 9.2081 26.2273C9.01491 25.9432 8.91359 25.5919 8.90412 25.1733H10.0945C10.1077 25.3684 10.1636 25.5312 10.2621 25.6619C10.3625 25.7907 10.496 25.8883 10.6626 25.9545C10.8312 26.0189 11.0215 26.0511 11.2337 26.0511C11.442 26.0511 11.6229 26.0208 11.7763 25.9602C11.9316 25.8996 12.0518 25.8153 12.1371 25.7074C12.2223 25.5994 12.2649 25.4754 12.2649 25.3352C12.2649 25.2045 12.2261 25.0947 12.1484 25.0057C12.0727 24.9167 11.9609 24.8409 11.8132 24.7784C11.6674 24.7159 11.4884 24.6591 11.2763 24.608L10.6428 24.4489C10.1522 24.3295 9.76491 24.143 9.48082 23.8892C9.19673 23.6354 9.05563 23.2936 9.05753 22.8636C9.05563 22.5114 9.14938 22.2036 9.33878 21.9403C9.53007 21.6771 9.79238 21.4716 10.1257 21.3239C10.459 21.1761 10.8378 21.1023 11.2621 21.1023C11.6939 21.1023 12.0708 21.1761 12.3928 21.3239C12.7166 21.4716 12.9685 21.6771 13.1484 21.9403C13.3284 22.2036 13.4212 22.5085 13.4268 22.8551H12.2479ZM15.2038 27H13.8857L15.8942 21.1818H17.4794L19.4851 27H18.1669L16.7095 22.5114H16.6641L15.2038 27ZM15.1214 24.7131H18.2351V25.6733H15.1214V24.7131ZM25.0518 21.1818V27H23.9893L21.4581 23.3381H21.4155V27H20.1854V21.1818H21.2649L23.7763 24.8409H23.8274V21.1818H25.0518ZM30.9347 21.1818V27H29.8722L27.3409 23.3381H27.2983V27H26.0682V21.1818H27.1477L29.6591 24.8409H29.7102V21.1818H30.9347ZM34.0135 27H31.951V21.1818H34.0305C34.6158 21.1818 35.1196 21.2983 35.5419 21.5312C35.9643 21.7623 36.2891 22.0947 36.5163 22.5284C36.7455 22.9621 36.8601 23.4811 36.8601 24.0852C36.8601 24.6913 36.7455 25.2121 36.5163 25.6477C36.2891 26.0833 35.9624 26.4176 35.5362 26.6506C35.112 26.8835 34.6044 27 34.0135 27ZM33.1811 25.946H33.9624C34.326 25.946 34.6319 25.8816 34.88 25.7528C35.13 25.6222 35.3175 25.4205 35.4425 25.1477C35.5694 24.8731 35.6328 24.5189 35.6328 24.0852C35.6328 23.6553 35.5694 23.304 35.4425 23.0312C35.3175 22.7585 35.1309 22.5578 34.8828 22.429C34.6347 22.3002 34.3288 22.2358 33.9652 22.2358H33.1811V25.946ZM37.7713 27V21.1818H41.6918V22.196H39.0014V23.5824H41.4901V24.5966H39.0014V25.9858H41.7031V27H37.7713ZM43.7209 21.1818L45.1271 25.6023H45.1811L46.5902 21.1818H47.9538L45.9482 27H44.3629L42.3544 21.1818H43.7209Z" fill="#00FF29"/>
</g>
<defs>
<clipPath id="clip0_3_36">
<rect width="48" height="48" fill="white"/>
</clipPath>
</defs>
</svg>
